#N canvas 342 79 1920 1026 12;
#X obj 31 46 loadbang;
#X obj 101 719 *~;
#X obj 25 375 vsl 15 128 0 1 0 0 empty empty empty 0 -9 0 10 #fcfcfc #000000 #000000 0 1;
#X obj 25 520 pack 0 50;
#X obj 25 548 line~;
#N canvas 0 22 450 278 (subpatch) 0;
#X array anothersample 122112 float 2;
#X coords 0 1 122112 -1 200 140 1 0 0;
#X restore 221 463 graph;
#X obj 121 369 soundfiler;
#X floatatom 121 410 9 0 0 0 - - - 0;
#X text 190 411 # of smpls;
#X obj 122 590 line~;
#X obj 148 434 / 44.1;
#X floatatom 150 464 5 0 0 0 - - - 0;
#X obj 122 536 pack 0 0;
#X obj 154 505 i;
#X msg 122 562 1 \, \$1 \$2;
#X obj 120 236 bng 15 250 50 0 empty empty empty 17 7 0 10 #fcfcfc #000000 #000000;
#X text 114 110 load and play an audio file;
#X obj 119 146 receive collection;
#X obj 122 641 tabread4~ anothersample;
#X obj 525 891 dac~;
#X obj 712 730 *~;
#X obj 636 386 vsl 15 128 0 1 0 0 empty empty empty 0 -9 0 10 #fcfcfc #000000 #000000 0 1;
#X obj 636 531 pack 0 50;
#X obj 636 559 line~;
#X obj 732 380 soundfiler;
#X floatatom 732 421 9 0 0 0 - - - 0;
#X text 801 422 # of smpls;
#X obj 733 601 line~;
#X obj 759 445 / 44.1;
#X floatatom 761 475 5 0 0 0 - - - 0;
#X obj 733 547 pack 0 0;
#X obj 765 516 i;
#X msg 733 573 1 \, \$1 \$2;
#X text 725 121 load and play an audio file;
#X obj 733 652 tabread4~ anothersample;
#X msg 121 277 read -resize game-assets/wavs/sparkle.wav anothersample;
#X msg 25 347 0.8;
#X msg 636 358 0.8;
#X obj 731 242 bng 15 250 50 0 empty empty empty 17 7 0 10 #fcfcfc #000000 #000000;
#X obj 730 157 receive caught;
#X msg 732 288 read -resize game-assets/wavs/hit.wav anothersample;
#X connect 0 0 36 0;
#X connect 0 0 37 0;
#X connect 1 0 19 0;
#X connect 1 0 19 1;
#X connect 2 0 3 0;
#X connect 3 0 4 0;
#X connect 4 0 1 1;
#X connect 6 0 7 0;
#X connect 7 0 10 0;
#X connect 7 0 12 0;
#X connect 9 0 18 0;
#X connect 10 0 11 0;
#X connect 11 0 13 0;
#X connect 12 0 14 0;
#X connect 13 0 12 1;
#X connect 14 0 9 0;
#X connect 15 0 35 0;
#X connect 17 0 15 0;
#X connect 18 0 1 0;
#X connect 20 0 19 0;
#X connect 20 0 19 1;
#X connect 21 0 22 0;
#X connect 22 0 23 0;
#X connect 23 0 20 1;
#X connect 24 0 25 0;
#X connect 25 0 28 0;
#X connect 25 0 30 0;
#X connect 27 0 34 0;
#X connect 28 0 29 0;
#X connect 29 0 31 0;
#X connect 30 0 32 0;
#X connect 31 0 30 1;
#X connect 32 0 27 0;
#X connect 34 0 20 0;
#X connect 35 0 6 0;
#X connect 36 0 2 0;
#X connect 37 0 21 0;
#X connect 38 0 40 0;
#X connect 39 0 38 0;
#X connect 40 0 24 0;
